<svg id="Grupo_1026" data-name="Grupo 1026" xmlns="http://www.w3.org/2000/svg" width="40" height="40" viewBox="0 0 40 40">
  <circle id="Elipse_1" data-name="Elipse 1" cx="20" cy="20" r="20" fill="#999"/>
  <path id="person_FILL0_wght400_GRAD0_opsz48" d="M19.5,19.6a5.288,5.288,0,0,1-3.881-1.491,5.158,5.158,0,0,1-1.509-3.835,5.158,5.158,0,0,1,1.509-3.835A5.288,5.288,0,0,1,19.5,8.95a5.288,5.288,0,0,1,3.881,1.491,5.158,5.158,0,0,1,1.509,3.835,5.158,5.158,0,0,1-1.509,3.835A5.288,5.288,0,0,1,19.5,19.6ZM8,31V27.662a3.874,3.874,0,0,1,.683-2.308A4.371,4.371,0,0,1,10.444,23.9a27.233,27.233,0,0,1,4.618-1.6,18.883,18.883,0,0,1,4.438-.533,18.088,18.088,0,0,1,4.42.55,30.865,30.865,0,0,1,4.6,1.58,4.322,4.322,0,0,1,1.8,1.456A3.874,3.874,0,0,1,31,27.662V31Zm2.156-2.13H28.844V27.662a1.929,1.929,0,0,0-.341-1.083,2.155,2.155,0,0,0-.845-.763,19.234,19.234,0,0,0-4.2-1.509A18.81,18.81,0,0,0,19.5,23.9a19.322,19.322,0,0,0-3.989.408,18.4,18.4,0,0,0-4.2,1.509,2.032,2.032,0,0,0-.827.763,2,2,0,0,0-.323,1.083Zm9.344-11.4a3.162,3.162,0,0,0,2.318-.905,3.084,3.084,0,0,0,.916-2.29,3.084,3.084,0,0,0-.916-2.29A3.162,3.162,0,0,0,19.5,11.08a3.162,3.162,0,0,0-2.318.905,3.084,3.084,0,0,0-.916,2.29,3.084,3.084,0,0,0,.916,2.29A3.162,3.162,0,0,0,19.5,17.472ZM19.5,14.276ZM19.5,28.87Z" transform="translate(0.5 -0.601)" fill="#fff"/>
</svg>
