<svg xmlns="http://www.w3.org/2000/svg" width="375" height="45.089" viewBox="0 0 375 45.089">
  <g id="Layer_1" data-name="Layer 1" transform="translate(375 45.089) rotate(180)">
    <g id="Grupo_1113" data-name="Grupo 1113" transform="translate(0 0)">
      <path id="Trazado_274" data-name="Trazado 274" d="M79.415,45.089H0V0H82.52a6.74,6.74,0,0,1,5.767,3.863,11.111,11.111,0,0,1,.8,8.256Z" transform="translate(0 0)" fill="#fcab00"/>
      <path id="Trazado_275" data-name="Trazado 275" d="M205.183,0H273.6V45.089H181l7.988-30.2C191.342,6.016,197.849.033,205.183,0Z" transform="translate(101.401 0)" fill="#fcab00"/>
      <path id="Trazado_276" data-name="Trazado 276" d="M241.842,45.089H56.55L67.238,8.711C68.773,3.473,72.69,0,77.067,0H243.4a7.77,7.77,0,0,1,6.645,4.445,12.812,12.812,0,0,1,.938,9.508Z" transform="translate(31.681 0)" fill="#17002a"/>
    </g>
  </g>
</svg>
