<svg xmlns="http://www.w3.org/2000/svg" width="1943" height="59.297" viewBox="0 0 1943 59.297">
  <g id="Grupo_1065" data-name="Grupo 1065" transform="translate(58 275)">
    <g id="Layer_1" data-name="Layer 1" transform="translate(1885 -215.703) rotate(180)">
      <path id="Trazado_274" data-name="Trazado 274" d="M133.432,59.3H0V0H138.649a11.8,11.8,0,0,1,11.036,15.938Z" transform="translate(0 0)" fill="#fcab00"/>
      <path id="Trazado_275" data-name="Trazado 275" d="M221.633,0H336.583V59.3H181l13.422-39.715A28.836,28.836,0,0,1,221.632,0Z" transform="translate(293.483 0)" fill="#fcab00"/>
      <path id="Trazado_276" data-name="Trazado 276" d="M367.874,59.3H56.55L74.507,11.456A17.642,17.642,0,0,1,91.022,0H370.5a13.605,13.605,0,0,1,12.74,18.35Z" transform="translate(91.693 0)" fill="#17002a"/>
    </g>
    <rect id="Rectángulo_379" data-name="Rectángulo 379" width="1334" height="59" transform="translate(-58 -275)" fill="#fcab00"/>
  </g>
</svg>
