<svg xmlns="http://www.w3.org/2000/svg" width="240.291" height="88.963" viewBox="0 0 240.291 88.963">
  <g id="Capa_2" data-name="Capa 2" transform="translate(0 0.003)">
    <g id="Layer_1" data-name="Layer 1" transform="translate(0 -0.004)">
      <path id="Trazado_266" data-name="Trazado 266" d="M47.526,19.771c-.133-.247-.266-.494-.418-.741l-.893-1.483a14.657,14.657,0,0,0-.989-1.426l-1.084-1.369c-.38-.418-.76-.836-1.179-1.236a.836.836,0,0,0-1.141,0L31.69,22.622c-.76.684-.874,1.1.114,1.654a10.646,10.646,0,0,1,4.962,6.768,11.92,11.92,0,0,1-.551,7.49c-1.768,4.258-5.7,7-9.068,9.961L20.189,54.75,4.752,68.609l-3.8,3.4A2.871,2.871,0,0,0,.684,76a2.947,2.947,0,0,0,3.916.418L37.127,53.933l2.034-1.426,1.046-.722,1.236-1.027c.418-.342.855-.665,1.236-1.046l1.122-1.16a19.01,19.01,0,0,0,2.053-2.547A24.713,24.713,0,0,0,50.32,33.648a25.987,25.987,0,0,0-2.4-13.155Z" transform="translate(0 11.983)" fill="#fff"/>
      <path id="Trazado_267" data-name="Trazado 267" d="M6.276,57.206l.418.741.893,1.483A10.7,10.7,0,0,0,8.6,60.856L9.66,62.224c.38.437.76.836,1.179,1.236a.836.836,0,0,0,1.141,0l10.19-9.144c.741-.684.855-1.084-.133-1.654a10.608,10.608,0,0,1-4.962-6.768,11.92,11.92,0,0,1,.551-7.49c1.768-4.258,5.7-7,9.068-9.961l6.958-6.254L49.087,8.368l3.8-3.4A2.871,2.871,0,0,0,53.156.973,2.947,2.947,0,0,0,49.239.554L16.732,23.063,14.678,24.47c-.342.247-.646.437-1.046.741L12.4,26.2c-.418.361-.855.665-1.236,1.046L10.04,28.519a17.794,17.794,0,0,0-2.053,2.528,24.714,24.714,0,0,0-4.467,12.3,26.082,26.082,0,0,0,2.4,13.174Z" transform="translate(3.095 0.004)" fill="#fff"/>
      <path id="Trazado_268" data-name="Trazado 268" d="M44.379,46.388a29.962,29.962,0,0,1-5.247-.418,14.809,14.809,0,0,1-3.992-1.217l1.293-6.121a21.462,21.462,0,0,0,4.144,1.407,19.79,19.79,0,0,0,4.391.532,13.307,13.307,0,0,0,4.106-.532,2.661,2.661,0,0,0,1.787-2.148A2.205,2.205,0,0,0,50.6,36.1a4.106,4.106,0,0,0-1.9-1.179c-.913-.342-2.148-.741-3.688-1.217a10.665,10.665,0,0,1-5.456-3.175,6.521,6.521,0,0,1-.646-5.285,9.505,9.505,0,0,1,4.3-6.292,16.824,16.824,0,0,1,9.182-2.186,27.584,27.584,0,0,1,4.772.38,22.527,22.527,0,0,1,3.669.855l-1.35,6.159a17.756,17.756,0,0,0-3.688-1.1A18.8,18.8,0,0,0,52.1,22.7a15.684,15.684,0,0,0-3.992.437,2.566,2.566,0,0,0-1.9,2.053,1.9,1.9,0,0,0,.228,1.5A3.365,3.365,0,0,0,48.048,27.7c.817.285,1.9.646,3.384,1.065a13.707,13.707,0,0,1,4.924,2.262,5.228,5.228,0,0,1,1.9,3.023,9.2,9.2,0,0,1,0,3.8,9.505,9.505,0,0,1-4.372,6.2A16.805,16.805,0,0,1,44.379,46.388Z" transform="translate(31.662 15.098)" fill="#fff"/>
      <path id="Trazado_269" data-name="Trazado 269" d="M47.77,45.734,64.879,16.99h7.756l4.848,28.744H70.525l-1.2-6.521H59.461l-3.935,6.521ZM61.515,33.909h7.6l-1.654-10Z" transform="translate(43.042 15.315)" fill="#fff"/>
      <path id="Trazado_270" data-name="Trazado 270" d="M65.57,45.725,71.634,17H78.82L73.992,40.193h13.5l-1.16,5.532Z" transform="translate(59.08 15.324)" fill="#fff"/>
      <path id="Trazado_271" data-name="Trazado 271" d="M82.749,45.725l2.243-10.57L78.51,17h7.224l3.935,11.92L98.6,17h7.756L92.217,35.174l-2.224,10.57Z" transform="translate(70.74 15.324)" fill="#fff"/>
      <path id="Trazado_272" data-name="Trazado 272" d="M89.77,45.734,106.879,16.99h7.775l4.9,28.744H112.6l-1.217-6.521h-9.923l-3.935,6.521Zm13.745-11.824h7.6l-1.654-10Z" transform="translate(80.886 15.315)" fill="#fff"/>
      <path id="Trazado_273" data-name="Trazado 273" d="M107.57,45.725,113.634,17h6.825l4.467,15.931L136.048,17h7.319l-6.083,28.744H130.1l3.479-16.52L125.5,40.82h-3.973L118.273,29.2l-3.479,16.52Z" transform="translate(96.924 15.324)" fill="#fff"/>
      <text id="Soluciones_Tecnológicas" data-name="Soluciones Tecnológicas" transform="translate(68.418 77.961)" fill="#fff" font-size="11" font-family="Montserrat-Regular, Montserrat"><tspan x="0" y="0">Solucio</tspan><tspan y="0" letter-spacing="0.01em">n</tspan><tspan y="0">es </tspan><tspan y="0" letter-spacing="-0.05em">T</tspan><tspan y="0">ecnológicas</tspan></text>
    </g>
  </g>
</svg>
